<svg id="SvgjsSvg1014" width="288" height="288" xmlns="http://www.w3.org/2000/svg" version="1.1" xmlns:xlink="http://www.w3.org/1999/xlink" xmlns:svgjs="http://svgjs.com/svgjs"><defs id="SvgjsDefs1015"></defs><g id="SvgjsG1016"><svg xmlns="http://www.w3.org/2000/svg" width="288" height="288" enable-background="new 0 0 512 512" viewBox="0 0 512 512"><path d="m504.5 172.52c4.142 0 7.5-3.357 7.5-7.5v-60c0-4.143-3.358-7.5-7.5-7.5h-16v-31.337c0-7.995-6.505-14.5-14.5-14.5h-46c-7.995 0-14.5 6.505-14.5 14.5v31.337h-30v-31.34c0-7.995-6.505-14.5-14.5-14.5h-35.01c-4.142 0-7.5 3.357-7.5 7.5s3.358 7.5 7.5 7.5h34.51v30.84h-225v-30.84h157.8c4.142 0 7.5-3.357 7.5-7.5s-3.358-7.5-7.5-7.5h-158.3c-7.995 0-14.5 6.505-14.5 14.5v31.34h-30v-31.337c0-7.995-6.505-14.5-14.5-14.5h-46c-7.995 0-14.5 6.505-14.5 14.5v31.337h-16c-4.142 0-7.5 3.357-7.5 7.5v60c0 4.143 3.358 7.5 7.5 7.5h16v212.8h-16c-4.142 0-7.5 3.357-7.5 7.5v60c0 4.143 3.358 7.5 7.5 7.5h497c4.142 0 7.5-3.357 7.5-7.5v-60c0-4.143-3.358-7.5-7.5-7.5h-16v-212.8zm-76-105.837h45v30.833h-45zm-390 0h45v30.833h-45zm435 318.637h-54.23c-4.142 0-7.5 3.357-7.5 7.5s3.358 7.5 7.5 7.5h77.73v45h-482v-45h371.58c4.142 0 7.5-3.357 7.5-7.5s-3.358-7.5-7.5-7.5h-348.08v-212.8h36.16c4.142 0 7.5-3.357 7.5-7.5s-3.358-7.5-7.5-7.5h-59.66v-45h482v45h-389.66c-4.142 0-7.5 3.357-7.5 7.5s3.358 7.5 7.5 7.5h366.16z" fill="#ffffff" class="color000 svgShape"></path><path d="M315.306 252.166h-51.806v-50.913c0-3.359-2.234-6.309-5.468-7.22-3.231-.909-6.678.441-8.431 3.307l-59.306 96.984c-1.416 2.315-1.47 5.214-.144 7.581 1.327 2.366 3.829 3.832 6.542 3.832h51.807v50.85c0 3.359 2.233 6.309 5.466 7.219.675.19 1.358.282 2.034.282 2.563 0 5.01-1.319 6.397-3.587l59.306-96.92c1.417-2.315 1.472-5.215.145-7.582s-3.828-3.833-6.542-3.833zm-51.806 77.795v-31.724c0-4.143-3.358-7.5-7.5-7.5h-45.929l38.429-62.843v31.771c0 4.143 3.358 7.5 7.5 7.5h45.924zM115.833 271.42h-17.166v-17.167c0-4.143-3.358-7.5-7.5-7.5s-7.5 3.357-7.5 7.5v17.167h-17.167c-4.142 0-7.5 3.357-7.5 7.5s3.358 7.5 7.5 7.5h17.167v17.167c0 4.143 3.358 7.5 7.5 7.5s7.5-3.357 7.5-7.5v-17.167h17.167c4.142 0 7.5-3.357 7.5-7.5s-3.358-7.5-7.501-7.5zM445.5 271.42h-49.333c-4.142 0-7.5 3.357-7.5 7.5s3.358 7.5 7.5 7.5h49.333c4.142 0 7.5-3.357 7.5-7.5s-3.358-7.5-7.5-7.5z" fill="#ffffff" class="color000 svgShape"></path></svg></g></svg>