<svg id="SvgjsSvg1020" width="288" height="288" xmlns="http://www.w3.org/2000/svg" version="1.1" xmlns:xlink="http://www.w3.org/1999/xlink" xmlns:svgjs="http://svgjs.com/svgjs"><defs id="SvgjsDefs1021"></defs><g id="SvgjsG1022"><svg xmlns="http://www.w3.org/2000/svg" width="288" height="288" enable-background="new 0 0 512 512" viewBox="0 0 512 512"><path d="m504.5 295.68c4.143 0 7.5-3.357 7.5-7.5v-34.554c0-12.958-10.542-23.5-23.5-23.5s-23.5 10.542-23.5 23.5v8.308h-17.5v-25.91c0-6.24-2.745-12.111-7.531-16.107l-82.665-69.045c-3.76-3.142-8.528-4.871-13.425-4.871h-77.424v-22h53.5c12.958 0 23.5-10.542 23.5-23.5s-10.542-23.501-23.5-23.501h-96.185c-4.143 0-7.5 3.357-7.5 7.5s3.357 7.5 7.5 7.5h96.186c4.687 0 8.5 3.813 8.5 8.5s-3.813 8.5-8.5 8.5h-152c-4.687 0-8.5-3.813-8.5-8.5s3.813-8.5 8.5-8.5h23.814c4.143 0 7.5-3.357 7.5-7.5s-3.357-7.5-7.5-7.5h-23.814c-12.958 0-23.5 10.542-23.5 23.5s10.542 23.5 23.5 23.5h53.5v22h-85.479c-4.214 0-8.284 1.252-11.769 3.62l-50.521 34.325c-5.752 3.909-9.187 10.398-9.187 17.358v47.358h-17.5v-51.161c0-12.958-10.542-23.5-23.5-23.5s-23.5 10.542-23.5 23.5v152c0 12.958 10.542 23.5 23.5 23.5s23.5-10.542 23.5-23.5v-55.838h17.5v46.337c0 8.002 4.442 15.193 11.592 18.768l148.046 74.021c2.892 1.447 6.13 2.212 9.365 2.212h22.497c4.143 0 7.5-3.357 7.5-7.5s-3.357-7.5-7.5-7.5h-22.497c-.917 0-1.835-.217-2.655-.627l-148.048-74.022c-2.035-1.018-3.3-3.068-3.3-5.352v-138.695c0-1.986.979-3.838 2.617-4.951l50.521-34.325c.988-.672 2.143-1.027 3.338-1.027h207.902c1.389 0 2.741.491 3.81 1.383l82.665 69.046c1.364 1.139 2.146 2.813 2.146 4.595v177.998c0 3.297-2.672 5.979-5.956 5.979h-138.466c-4.143 0-7.5 3.357-7.5 7.5s3.357 7.5 7.5 7.5h138.467c11.556 0 20.956-9.411 20.956-20.979v-16.703h17.5v8.308c0 12.958 10.542 23.5 23.5 23.5s23.5-10.542 23.5-23.5v-85.448c0-4.143-3.357-7.5-7.5-7.5s-7.5 3.357-7.5 7.5v85.446c0 4.687-3.813 8.5-8.5 8.5s-8.5-3.813-8.5-8.5v-152c0-4.687 3.813-8.5 8.5-8.5s8.5 3.813 8.5 8.5v34.554c0 4.142 3.357 7.5 7.5 7.5zm-472.5 53.82c0 4.687-3.813 8.5-8.5 8.5s-8.5-3.813-8.5-8.5v-152c0-4.687 3.813-8.5 8.5-8.5s8.5 3.813 8.5 8.5zm15-70.838v-15h17.5v15zm189.455-132.662v-22h15v22zm211.045 236.318v-105.384h17.5v105.385h-17.5z" fill="#ffffff" class="color000 svgShape"></path><path d="m214.882 356.957c1.955 1.444 4.225 2.17 6.499 2.17 2.122 0 4.249-.632 6.129-1.899l76.179-51.421c2.654-1.791 4.385-4.643 4.75-7.824.364-3.181-.677-6.351-2.856-8.694l-20.786-22.373 15.409-45.167c1.543-4.519.005-9.468-3.826-12.316-3.832-2.851-9.016-2.897-12.897-.119 0 0 0 0-.001 0l-72.096 51.579c-2.594 1.854-4.245 4.74-4.532 7.916s.821 6.311 3.039 8.6l16.458 16.986-15.431 50.57c-1.371 4.492.184 9.2 3.962 11.992zm9.059-86.605 57.986-41.484-12.111 35.499c-1.302 3.817-.406 8.024 2.341 10.982l19.211 20.678-62.76 42.362 12.786-41.902c1.163-3.809.165-7.951-2.606-10.813z" fill="#ffffff" class="color000 svgShape"></path></svg></g></svg>