<svg id="SvgjsSvg1001" width="288" height="288" xmlns="http://www.w3.org/2000/svg" version="1.1" xmlns:xlink="http://www.w3.org/1999/xlink" xmlns:svgjs="http://svgjs.com/svgjs"><defs id="SvgjsDefs1002"></defs><g id="SvgjsG1008" transform="matrix(0.9167,0,0,0.9167,11.995200000000011,11.995200000000011)"><svg xmlns="http://www.w3.org/2000/svg" enable-background="new 0 0 480 480" viewBox="0 0 480 480" width="288" height="288"><path d="M361.74,428.188l-11.084-16.626l-13.313,8.875l10.648,15.972c-30.127,16.536-64.188,26.063-99.992,27.312V448h-16v15.797
			c-36.101-1.276-70.054-11.098-99.877-27.559l10.534-15.801l-13.313-8.875l-10.941,16.412
			c-26.516-17.212-49.165-39.861-66.377-66.377l16.412-10.941l-8.875-13.313l-15.801,10.534
			C27.301,318.054,17.479,284.101,16.203,248H40v-16H16.203c1.276-36.101,11.098-70.054,27.559-99.877l15.801,10.534l8.875-13.313
			l-16.412-10.941c17.212-26.516,39.861-49.165,66.377-66.377l10.941,16.412l13.313-8.875l-10.534-15.801
			c29.823-16.46,63.776-26.283,99.877-27.559V32h16V16.278c35.803,1.249,69.865,10.776,99.992,27.312l-10.648,15.972l13.313,8.875
			l11.084-16.626c33.152,21.453,60.683,51.716,79.092,88.864l14.336-7.102C414.34,51.184,331.895,0,240,0C107.664,0,0,107.664,0,240
			s107.664,240,240,240c91.895,0,174.34-51.184,215.168-133.574l-14.336-7.102C422.423,376.473,394.893,406.736,361.74,428.188z" fill="#ffffff" class="color000 svgShape"></path><path d="M472,184h-71.063c-20.027-34.668-56.73-56-96.938-56c-41.844,0-79.895,23.105-99.301,60.301
			c-1.293,2.48-1.199,5.453,0.254,7.848c1.449,2.391,4.043,3.852,6.84,3.852h80.895l40,40l-40,40h-80.895
			c-2.797,0-5.391,1.461-6.84,3.852c-1.453,2.395-1.547,5.367-0.254,7.848C224.105,328.895,262.156,352,304,352
			c40.207,0,76.91-21.332,96.938-56H472c4.418,0,8-3.582,8-8v-96C480,187.582,476.418,184,472,184z M464,280h-67.793
			c-2.98,0-5.715,1.656-7.094,4.301C372.477,316.191,339.863,336,304,336c-31.246,0-60.023-15.035-77.922-40H296
			c2.121,0,4.156-0.844,5.656-2.344l48-48c3.125-3.125,3.125-8.188,0-11.313l-48-48c-1.5-1.5-3.535-2.344-5.656-2.344h-69.922
			c17.898-24.965,46.676-40,77.922-40c35.863,0,68.477,19.809,85.113,51.699c1.379,2.645,4.113,4.301,7.094,4.301H464V280z" fill="#ffffff" class="color000 svgShape"></path><path d="M240,216c-13.234,0-24,10.766-24,24s10.766,24,24,24s24-10.766,24-24S253.234,216,240,216z M240,248c-4.41,0-8-3.59-8-8
			s3.59-8,8-8s8,3.59,8,8S244.41,248,240,248z" fill="#ffffff" class="color000 svgShape"></path><path d="M240,392c-5.405,0-10.739-0.307-16-0.86v-58.289c0-3.648-2.469-6.836-6.004-7.746
			c-8.367-2.156-16.348-5.531-23.727-10.035c-3.145-1.922-7.207-1.438-9.824,1.172l-41.035,41.035
			c-7.538-6.22-14.468-13.149-20.688-20.688l41.035-41.035c2.613-2.613,3.098-6.672,1.172-9.824
			c-4.504-7.379-7.879-15.359-10.035-23.727c-0.91-3.535-4.098-6.004-7.746-6.004H88.86c-0.553-5.261-0.86-10.595-0.86-16
			s0.307-10.739,0.86-16h58.289c3.648,0,6.836-2.469,7.746-6.004c2.156-8.371,5.531-16.355,10.035-23.723
			c1.926-3.156,1.441-7.215-1.172-9.828l-41.035-41.035c6.22-7.538,13.149-14.468,20.688-20.688l41.035,41.035
			c1.543,1.543,3.59,2.344,5.66,2.344c1.434,0,2.875-0.383,4.168-1.172c7.367-4.504,15.352-7.879,23.723-10.035
			c3.535-0.91,6.004-4.098,6.004-7.746V88.86c5.261-0.553,10.595-0.86,16-0.86c33.195,0,64.73,10.508,91.195,30.387l9.609-12.797
			C311.547,83.617,276.688,72,240,72c-92.637,0-168,75.363-168,168s75.363,168,168,168c36.688,0,71.547-11.617,100.805-33.59
			l-9.609-12.797C304.73,381.492,273.195,392,240,392z M208,91.456v49.685c-5.715,1.848-11.25,4.184-16.551,6.992l-34.986-34.983
			C171.916,102.939,189.317,95.478,208,91.456z M113.15,156.463l34.983,34.986c-2.809,5.301-5.145,10.836-6.992,16.551H91.456
			C95.478,189.317,102.939,171.916,113.15,156.463z M113.15,323.537c-10.21-15.453-17.672-32.854-21.694-51.537h49.685
			c1.848,5.711,4.184,11.246,6.992,16.551L113.15,323.537z M208,388.544c-18.683-4.022-36.084-11.483-51.537-21.694l34.986-34.983
			c5.305,2.809,10.84,5.145,16.551,6.992V388.544z" fill="#ffffff" class="color000 svgShape"></path></svg></g></svg>