<svg id="SvgjsSvg1026" width="288" height="288" xmlns="http://www.w3.org/2000/svg" version="1.1" xmlns:xlink="http://www.w3.org/1999/xlink" xmlns:svgjs="http://svgjs.com/svgjs"><defs id="SvgjsDefs1027"></defs><g id="SvgjsG1028"><svg xmlns="http://www.w3.org/2000/svg" enable-background="new 0 0 512 512" viewBox="0 0 512 512" width="288" height="288"><path d="M212.195,239.946v63.615h159.593v-63.615H212.195z M356.162,287.936H227.821v-32.364h128.342V287.936z" fill="#ffffff" class="color000 svgShape"></path><polygon points="211.727 127.609 211.727 231.78 227.353 231.78 227.353 143.235 356.525 143.235 356.525 231.78 372.151 231.78 372.151 127.609" fill="#ffffff" class="color000 svgShape"></polygon><rect width="15.626" height="47.919" x="235.687" y="183.862" fill="#ffffff" class="color000 svgShape"></rect><rect width="15.626" height="47.919" x="284.647" y="183.862" fill="#ffffff" class="color000 svgShape"></rect><rect width="15.626" height="23.959" x="260.688" y="207.821" fill="#ffffff" class="color000 svgShape"></rect><rect width="15.626" height="47.919" x="332.566" y="183.862" fill="#ffffff" class="color000 svgShape"></rect><rect width="15.626" height="23.959" x="308.606" y="207.821" fill="#ffffff" class="color000 svgShape"></rect><path d="M356.525,311.992v16.384c-32.11,3.726-56.252,30.213-56.252,63.352v95.979c0,4.513-3.739,8.183-8.334,8.183
			s-8.334-3.671-8.334-8.183v-95.979c0-32.547-24.597-59.481-56.252-63.329v-16.407h-15.626v31.251h7.813
			c26.709,0,48.44,21.921,48.44,48.484v95.979c0,13.129,10.747,23.808,23.959,23.808s23.959-10.681,23.959-23.808v-95.979
			c0-13.021,4.886-25.283,13.757-34.248c8.986-9.081,21.303-14.236,34.683-14.236h7.813v-31.251H356.525z" fill="#ffffff" class="color000 svgShape"></path><rect width="15.626" height="15.626" x="244.02" y="264.073" fill="#ffffff" class="color000 svgShape"></rect><rect width="15.626" height="15.626" x="324.232" y="264.073" fill="#ffffff" class="color000 svgShape"></rect><rect width="16.667" height="15.626" x="283.605" y="264.073" fill="#ffffff" class="color000 svgShape"></rect><path d="M404.153,271.939v39.62h95.607v-39.62H404.153z M484.134,295.934h-64.356v-8.369h64.356V295.934z" fill="#ffffff" class="color000 svgShape"></path><polygon points="459.654 248.448 459.654 47.398 444.028 47.398 444.028 248.448 420.069 248.448 420.069 264.073 483.613 264.073 483.613 248.448" fill="#ffffff" class="color000 svgShape"></polygon><rect width="15.626" height="15.626" x="444.028" y="416.163" fill="#ffffff" class="color000 svgShape"></rect><path d="M483.613 340.555v-21.271h-15.626v27.637l15.626 15.997v84.497h-63.544v-84.497l15.626-15.997v-27.637h-15.626v21.271l-15.626 15.996v107.16c0 26.359 21.262 47.804 47.398 47.804s47.398-21.445 47.398-47.804v-107.16L483.613 340.555zM483.613 463.711c0 17.743-14.254 32.178-31.772 32.178s-31.772-14.435-31.772-32.178v-.671h63.544V463.711zM204.197 0v16.146h-16.367V0H60.044C33.685 0 12.24 21.445 12.24 47.804v31.993h15.626c0-13.333 10.847-24.18 24.18-24.18h32.586c8.595 0 15.589 6.993 15.589 15.589v40.399h87.61V71.357h16.367V87.61h87.609V0H204.197zM172.205 95.979L172.205 95.979h-56.36V71.205c0-17.211-14.003-31.215-31.215-31.215H52.046c-9.087 0-17.473 3.061-24.18 8.206v-.392c0-17.743 14.435-32.178 32.178-32.178h112.161V95.979zM204.197 55.731h-16.367V31.772h16.367V55.731zM276.181 71.984h-56.359V15.626h0 56.359V71.984zM107.556 120.317v15.626h8.334V512h56.252V135.943h8.334v-15.626H107.556zM156.517 496.374h-25.001v-5.107l25.001-25.001V496.374zM156.517 444.169l-25.001 25.001v-25.892l25.001-25.001V444.169zM156.517 396.18l-25.001 25.001v-25.892l25.001-25.001V396.18zM156.517 348.191l-25.001 25.001v-37.241h25.001V348.191zM156.517 320.326h-25.001V135.943h25.001V320.326z" fill="#ffffff" class="color000 svgShape"></path></svg></g></svg>